<?xml version="1.0" encoding="utf-8"?>
<!-- Generator: Adobe Illustrator 27.0.0, SVG Export Plug-In . SVG Version: 6.00 Build 0)  -->
<svg version="1.1" xmlns="http://www.w3.org/2000/svg" xmlns:xlink="http://www.w3.org/1999/xlink" x="0px" y="0px"
	 viewBox="0 0 283.46 113.39" style="enable-background:new 0 0 283.46 113.39;" xml:space="preserve">
<style type="text/css">
	.st0{display:none;}
	.st1{display:inline;fill:#E30613;}
	.st2{display:inline;fill:#FFFFFF;}
	.st3{display:inline;fill:#020203;}
</style>
<g id="Layer_2" class="st0">
</g>
<g id="Layer_3" class="st0">
	<rect x="178.66" y="19.65" class="st1" width="90.83" height="74.97"/>
</g>
<g id="Layer_1">
	<g class="st0">
		<path class="st2" d="M267.26,12.64c-6.92-3.31-14.94-2.37-20.95,2.47L226.87,30.9c-1.83,1.48-4.45,1.46-6.26-0.05L207.29,19.7
			l-0.23-0.19c-7.79-6.28-17.59-9.73-27.6-9.73h-63.18c-7.23,0-14.27,2.46-19.93,6.85c-1.78,1.38-4.38,1.16-5.84-0.55
			c-3.3-3.86-8.2-6.3-13.66-6.3H52.5C27,9.78,5.7,30.24,5.01,55.39c-0.35,12.73,4.32,24.76,13.15,33.9
			c9.01,9.33,21.61,14.32,34.58,14.32l91.58,0c8.52,0,16.29-3.19,22.13-8.45c1.93-1.73,4.99-1.36,6.47,0.76
			c3.38,4.82,9.05,7.92,15.43,7.67c9.72-0.37,17.26-8.69,17.26-18.42l0-14.51c0-2.18,2.55-3.38,4.23-1.97l0,0l0.28,0.23
			c7.8,6.28,19.14,6.28,26.98-0.04l1.25-1.02c1.68-1.37,4.2-0.17,4.2,2V85.2c0,9.73,7.55,18.03,17.27,18.39
			c10.22,0.39,18.66-7.82,18.66-17.95V30.45C278.47,22.78,274.18,15.95,267.26,12.64z"/>
		<path class="st3" d="M179.46,9.78c10.01,0,19.81,3.46,27.6,9.73l0.23,0.19l13.32,11.15c0.91,0.76,2.03,1.15,3.16,1.15
			c1.1,0,2.2-0.37,3.1-1.1l19.44-15.78c3.63-2.93,8-4.43,12.41-4.43c2.89,0,5.8,0.64,8.54,1.96c6.92,3.31,11.22,10.13,11.22,17.8
			v55.19c0,9.91-8.06,17.97-17.97,17.97c-0.23,0-0.46,0-0.69-0.01c-9.72-0.37-17.27-8.67-17.27-18.39V69.86
			c0-1.53-1.26-2.58-2.59-2.58c-0.55,0-1.12,0.18-1.61,0.58l-1.25,1.02c-3.93,3.16-8.73,4.75-13.53,4.75
			c-4.78,0-9.55-1.57-13.45-4.7l-0.28-0.23c-0.5-0.42-1.07-0.6-1.64-0.6c-1.33,0-2.59,1.04-2.59,2.58v14.51
			c0,9.73-7.54,18.05-17.26,18.42c-0.24,0.01-0.47,0.01-0.71,0.01c-6.08,0-11.47-3.04-14.72-7.68c-0.85-1.22-2.22-1.86-3.6-1.86
			c-1.02,0-2.05,0.36-2.88,1.1c-5.84,5.26-13.61,8.45-22.13,8.45H52.73c-12.97,0-25.57-4.99-34.58-14.32
			c-8.83-9.14-13.5-21.17-13.15-33.9C5.7,30.24,27,9.78,52.5,9.78h24.35c5.46,0,10.36,2.45,13.66,6.3c0.82,0.96,2,1.45,3.19,1.45
			c0.93,0,1.87-0.3,2.65-0.9c5.66-4.4,12.71-6.85,19.93-6.85H179.46 M179.46,4.79h-63.18c-8.05,0-16,2.66-22.46,7.5
			c-4.35-4.77-10.49-7.5-16.96-7.5H52.5c-28.18,0-51.72,22.64-52.48,50.46c-0.39,14.07,4.78,27.39,14.55,37.5
			c9.73,10.07,23.64,15.84,38.17,15.84h91.58c9.21,0,18.03-3.28,24.93-9.25c4.33,5.8,11.16,9.25,18.4,9.25c0.3,0,0.6-0.01,0.9-0.02
			c6-0.23,11.59-2.82,15.74-7.3c4.07-4.39,6.32-10.11,6.32-16.11v-9.93c3.93,2.2,8.4,3.37,12.96,3.37c4.96,0,9.82-1.39,13.99-3.96
			V85.2c0,6,2.25,11.72,6.33,16.11c4.15,4.46,9.74,7.05,15.75,7.28c0.3,0.01,0.59,0.02,0.88,0.02c12.66,0,22.96-10.3,22.96-22.96
			V30.45c0-9.61-5.38-18.16-14.05-22.3c-3.39-1.62-6.99-2.44-10.69-2.44c-5.59,0-11.11,1.97-15.54,5.54l-19.41,15.75L210.5,15.88
			l-0.27-0.22C201.52,8.64,190.6,4.79,179.46,4.79L179.46,4.79z"/>
	</g>
	<g>
		<path d="M260.51,94.62c-4.96,0-8.98-4.02-8.98-8.98V45.59L231.43,61.9c-4.56,3.68-11.15,3.68-15.68,0.02
			c-0.04-0.04-0.09-0.07-0.13-0.11L190.1,40.46c-3.01-2.4-6.78-3.72-10.64-3.72h-63.18c-1.52,0-2.93,0.6-3.97,1.7
			c-0.61,0.63-1.61,2.01-1.51,4.07c0.13,2.87,2.78,5.21,5.89,5.21h28.04c6.38,0,12.57,2.65,16.97,7.27
			c4.47,4.68,6.76,10.83,6.46,17.31c-0.59,12.52-11.06,22.33-23.84,22.33H51.9c-10.33,0-19.98-4.08-27.19-11.48
			c-7.2-7.4-11.01-17.17-10.73-27.51C14.55,35.3,31.82,18.76,52.5,18.76h24.35c4.96,0,8.98,4.02,8.98,8.98s-4.02,8.98-8.98,8.98
			H52.5c-11.04,0-20.26,8.7-20.56,19.39c-0.15,5.45,1.86,10.59,5.65,14.49c3.79,3.9,8.87,6.04,14.31,6.04h92.42
			c3.11,0,5.76-2.34,5.89-5.21c0.1-2.06-0.9-3.43-1.51-4.07c-1.05-1.1-2.46-1.7-3.97-1.7h-28.04c-12.78,0-23.25-9.81-23.84-22.33
			c-0.31-6.48,1.99-12.63,6.46-17.31c4.41-4.62,10.59-7.27,16.97-7.27h63.18c7.96,0,15.76,2.75,21.96,7.75
			c0.04,0.04,0.09,0.07,0.13,0.11l22.07,18.48l28.34-23c3.28-2.64,7.64-3.15,11.41-1.35c3.77,1.8,6.11,5.52,6.11,9.7v55.19
			C269.49,90.6,265.47,94.62,260.51,94.62z"/>
	</g>
	<g>
		<path d="M187.65,94.62c-4.96,0-8.98-4.02-8.98-8.98V56.69c0-4.96,4.02-8.98,8.98-8.98c4.96,0,8.98,4.02,8.98,8.98v28.95
			C196.63,90.6,192.61,94.62,187.65,94.62z"/>
	</g>
</g>
</svg>
