<svg width="284" height="114" viewBox="0 0 284 114" fill="none" xmlns="http://www.w3.org/2000/svg">
<path d="M260.51 94.62C255.55 94.62 251.53 90.6 251.53 85.64V45.59L231.43 61.9C226.87 65.58 220.28 65.58 215.75 61.92C215.71 61.88 215.66 61.85 215.62 61.81L190.1 40.46C187.09 38.06 183.32 36.74 179.46 36.74H116.28C114.76 36.74 113.35 37.34 112.31 38.44C111.7 39.07 110.7 40.45 110.8 42.51C110.93 45.38 113.58 47.72 116.69 47.72H144.73C151.11 47.72 157.3 50.37 161.7 54.99C166.17 59.67 168.46 65.82 168.16 72.3C167.57 84.82 157.1 94.63 144.32 94.63H51.9C41.57 94.63 31.92 90.55 24.71 83.15C17.51 75.75 13.7 65.98 13.98 55.64C14.55 35.3 31.82 18.76 52.5 18.76H76.85C81.81 18.76 85.83 22.78 85.83 27.74C85.83 32.7 81.81 36.72 76.85 36.72H52.5C41.46 36.72 32.24 45.42 31.94 56.11C31.79 61.56 33.8 66.7 37.59 70.6C41.38 74.5 46.46 76.64 51.9 76.64H144.32C147.43 76.64 150.08 74.3 150.21 71.43C150.31 69.37 149.31 68 148.7 67.36C147.65 66.26 146.24 65.66 144.73 65.66H116.69C103.91 65.66 93.44 55.85 92.85 43.33C92.54 36.85 94.84 30.7 99.31 26.02C103.72 21.4 109.9 18.75 116.28 18.75H179.46C187.42 18.75 195.22 21.5 201.42 26.5C201.46 26.54 201.51 26.57 201.55 26.61L223.62 45.09L251.96 22.09C255.24 19.45 259.6 18.94 263.37 20.74C267.14 22.54 269.48 26.26 269.48 30.44V85.63C269.49 90.6 265.47 94.62 260.51 94.62Z" fill="white"/>
<path d="M187.65 94.62C182.69 94.62 178.67 90.6 178.67 85.64V56.69C178.67 51.73 182.69 47.71 187.65 47.71C192.61 47.71 196.63 51.73 196.63 56.69V85.64C196.63 90.6 192.61 94.62 187.65 94.62Z" fill="white"/>
</svg>