<?xml version="1.0" encoding="utf-8"?>
<!-- Generator: Adobe Illustrator 28.3.0, SVG Export Plug-In . SVG Version: 6.00 Build 0)  -->
<svg version="1.1" xmlns="http://www.w3.org/2000/svg" xmlns:xlink="http://www.w3.org/1999/xlink" x="0px" y="0px"
	 viewBox="0 0 1920 1080" style="enable-background:new 0 0 1920 1080;" xml:space="preserve">
<style type="text/css">
	.st0{display:none;}
	.st1{display:inline;fill:#FFFFFF;}
	.st2{display:inline;fill:#020203;}
	.st3{display:none;fill:#FF0000;}
	.st4{font-family:'Panton-LightCaps';}
	.st5{font-size:148px;}
	.st6{letter-spacing:9;}
</style>
<g id="Layer_1">
	<g id="Layer_1_00000163050779367704361840000005805752798825463228_">
		<g class="st0">
			<path class="st1" d="M1833.3,188.8c-48.2-23-103.9-16.5-145.8,17.2l-135.3,109.9c-12.7,10.3-31,10.2-43.6-0.4l-92.7-77.6
				l-1.6-1.3c-54.2-43.7-122.4-67.7-192-67.7H782.8c-50.3,0-99.3,17.1-138.7,47.7c-12.4,9.6-30.5,8.1-40.6-3.8
				c-23-26.9-57-43.8-95-43.8H339c-177.4,0-325.6,142.4-330.4,317.3c-2.4,88.6,30.1,172.3,91.5,235.9
				c62.7,64.9,150.4,99.6,240.6,99.6h637.2c59.3,0,113.3-22.2,154-58.8c13.4-12,34.7-9.5,45,5.3c23.5,33.5,63,55.1,107.4,53.4
				c67.6-2.6,120.1-60.5,120.1-128.2v-101c0-15.2,17.7-23.5,29.4-13.7l0,0l1.9,1.6c54.3,43.7,133.2,43.7,187.7-0.3l8.7-7.1
				c11.7-9.5,29.2-1.2,29.2,13.9v106.7c0,67.7,52.5,125.5,120.2,128c71.1,2.7,129.8-54.4,129.8-124.9v-384
				C1911.3,259.3,1881.4,211.8,1833.3,188.8z"/>
			<path class="st2" d="M1222.4,168.9c69.7,0,137.8,24.1,192,67.7l1.6,1.3l92.7,77.6c6.3,5.3,14.1,8,22,8c7.7,0,15.3-2.6,21.6-7.6
				L1687.5,206c25.3-20.4,55.7-30.8,86.3-30.8c20.1,0,40.4,4.4,59.4,13.6c48.2,23,78.1,70.5,78.1,123.8v384c0,69-56.1,125-125,125
				c-1.6,0-3.2,0-4.8-0.1c-67.6-2.6-120.2-60.3-120.2-128V586.9c0-10.7-8.8-18-18-18c-3.8,0-7.8,1.2-11.2,4l-8.7,7.1
				c-27.3,22-60.7,33-94.1,33c-33.3,0-66.4-10.9-93.6-32.7l-1.9-1.6c-3.5-2.9-7.4-4.2-11.4-4.2c-9.2,0-18,7.2-18,18v101
				c0,67.7-52.5,125.6-120.1,128.2c-1.7,0.1-3.3,0.1-4.9,0.1c-42.3,0-79.8-21.2-102.4-53.4c-5.9-8.5-15.4-12.9-25.1-12.9
				c-7.1,0-14.3,2.5-20,7.7c-40.6,36.6-94.7,58.8-154,58.8H340.6c-90.2,0-177.9-34.7-240.6-99.6C38.6,658.6,6.1,574.9,8.5,486.3
				C13.4,311.2,161.6,168.9,339,168.9h169.4c38,0,72.1,17.1,95,43.8c5.7,6.7,13.9,10.1,22.2,10.1c6.5,0,13-2.1,18.4-6.3
				c39.4-30.6,88.4-47.7,138.7-47.7L1222.4,168.9 M1222.4,134.1H782.8c-56,0-111.3,18.5-156.3,52.2c-30.3-33.2-73-52.2-118-52.2H339
				C143,134.1-20.8,291.7-26.1,485.2c-2.7,97.9,33.3,190.6,101.2,260.9c67.7,70.1,164.5,110.2,265.6,110.2h637.2
				c64.1,0,125.4-22.8,173.5-64.4c30.1,40.4,77.7,64.4,128,64.4c2.1,0,4.2-0.1,6.3-0.1c41.8-1.6,80.6-19.6,109.5-50.8
				c28.3-30.5,44-70.3,44-112.1v-69.1c27.3,15.3,58.4,23.5,90.2,23.5c34.5,0,68.3-9.7,97.3-27.5v73.5c0,41.8,15.7,81.5,44,112.1
				c28.9,31,67.8,49,109.6,50.7c2.1,0.1,4.1,0.1,6.1,0.1c88.1,0,159.8-71.7,159.8-159.8V312.7c0-66.9-37.4-126.4-97.8-155.2
				c-23.6-11.3-48.6-17-74.4-17c-38.9,0-77.3,13.7-108.1,38.6l-135.1,109.6l-92.5-77.4l-1.9-1.5
				C1375.9,160.9,1299.9,134.1,1222.4,134.1L1222.4,134.1z"/>
		</g>
		<g>
			<path d="M1786.3,759.2c-34.5,0-62.5-28-62.5-62.5V418L1584,531.5c-31.7,25.6-77.6,25.6-109.1,0.1c-0.3-0.3-0.6-0.5-0.9-0.8
				l-177.6-148.5c-20.9-16.7-47.2-25.9-74-25.9H782.8c-10.6,0-20.4,4.2-27.6,11.8c-4.2,4.4-11.2,14-10.5,28.3
				c0.9,20,19.3,36.2,41,36.2h195.1c44.4,0,87.5,18.4,118.1,50.6c31.1,32.6,47,75.3,44.9,120.4c-4.1,87.1-76.9,155.4-165.9,155.4
				h-643c-71.9,0-139-28.4-189.2-79.9C95.6,627.9,69.1,559.9,71,487.9c4-141.5,124.1-256.6,268-256.6h169.4
				c34.5,0,62.5,28,62.5,62.5s-28,62.5-62.5,62.5H339c-76.8,0-141,60.5-143.1,134.9c-1,37.9,12.9,73.7,39.3,100.8s61.7,42,99.6,42
				h643c21.6,0,40.1-16.3,41-36.2c0.7-14.3-6.3-23.9-10.5-28.3c-7.3-7.7-17.1-11.8-27.6-11.8H785.6c-88.9,0-161.8-68.3-165.9-155.4
				c-2.2-45.1,13.8-87.9,45-120.4c30.7-32.1,73.7-50.6,118.1-50.6h439.6c55.4,0,109.7,19.1,152.8,53.9c0.3,0.3,0.6,0.5,0.9,0.8
				l153.6,128.6l197.2-160c22.8-18.4,53.2-21.9,79.4-9.4c26.2,12.5,42.5,38.4,42.5,67.5v384C1848.8,731.2,1820.8,759.2,1786.3,759.2
				z"/>
		</g>
		<g>
			<path d="M1279.4,759.2c-34.5,0-62.5-28-62.5-62.5V495.2c0-34.5,28-62.5,62.5-62.5s62.5,28,62.5,62.5v201.4
				C1341.9,731.2,1313.9,759.2,1279.4,759.2z"/>
		</g>
	</g>
	<rect x="70.9" y="759.7" class="st3" width="1777.8" height="76.4"/>
	<rect x="1723.8" y="0" class="st3" width="124.9" height="1080"/>
	<rect x="70.9" y="0" class="st3" width="124.1" height="1080"/>
	<text transform="matrix(1 0 0 1 84.7197 941.2441)" class="st0 st4 st5 st6">CYBERSPORT MASTERS</text>
	<g>
		<path d="M133.6,834.1c22.9,0,33.9,8.9,38.9,25.8c0.4,1.5,0,1.9-1.3,2.5l-2.7,0.9c-1.5,0.3-2.1,0.1-2.5-1.2
			c-4.4-14.7-13.2-21.6-32.4-21.6c-21.9,0-33,11.2-33,29.9v36.6c0,18.5,11.5,30,33,30c19.8,0,28.3-7.7,32.7-22.3
			c0.6-1.3,1.2-1.6,2.5-1.2l2.8,1c1.3,0.4,1.6,1,1.2,2.4c-5,16.9-15.7,26.5-39.2,26.5c-25.8,0-39.8-13.9-39.8-36.6v-36.3
			C93.7,848,107.4,834.1,133.6,834.1z"/>
		<path d="M274.9,838.1L234.8,898v41.3c0,1.5-0.4,1.9-1.8,1.9h-3.1c-1.5,0-1.9-0.4-1.9-1.9v-41.4l-40-59.8c-0.6-1-0.3-1.9,1-1.9h4
			c2.1,0,2.7,0.1,3.4,1.6l35.1,53.1l35.1-53.1c0.9-1.5,1.5-1.6,3.6-1.6h3.7C275.2,836.2,275.5,837.1,274.9,838.1z"/>
		<path d="M370.2,862.7c0,12.6-5.3,20.7-15.4,24.3v0.3c12.1,2.7,18.9,11.5,18.9,26c0,18.1-11.4,28-29.5,28h-44
			c-1.5,0-1.9-0.4-1.9-1.9V838.1c0-1.5,0.4-1.9,1.9-1.9h42C360,836.2,370.2,845.5,370.2,862.7z M341.6,842.5h-36.4v42h36.4
			c13.8,0,21.6-7.1,21.6-21.2C363.3,849.6,355.6,842.5,341.6,842.5z M344,890.8h-38.8v44.1H344c14.5,0,22.6-7.7,22.6-22.2
			C366.7,898.5,358.5,890.8,344,890.8z"/>
		<path d="M466.4,838.1v2.7c0,1.3-0.4,1.8-1.9,1.8H409v42.3h49.1c1.3,0,1.8,0.4,1.8,1.8v2.7c0,1.5-0.4,1.9-1.8,1.9H409v43.7h57.6
			c1.3,0,1.9,0.4,1.9,1.8v2.7c0,1.5-0.6,1.9-1.9,1.9h-62.5c-1.5,0-1.9-0.4-1.9-1.9V838.1c0-1.5,0.4-1.9,1.9-1.9h60.4
			C466,836.2,466.4,836.6,466.4,838.1z"/>
		<path d="M570,865.8c0,17-10.1,27.2-26,28.6c5.6,2.4,8.9,6.1,12.1,12.1l16.6,32.9c0.7,1,0.4,1.9-1,1.9h-2.8c-2.4,0-3.1-0.3-3.7-1.6
			l-15.4-30.5c-4.9-9.8-10.5-14.1-22.9-14.1h-24.4v44.3c0,1.5-0.4,1.9-1.8,1.9h-3.1c-1.5,0-1.9-0.4-1.9-1.9V838.1
			c0-1.5,0.4-1.9,1.9-1.9H540C558.6,836.2,570,847,570,865.8z M539.2,842.5h-36.9v46.2h36.9c14.8,0,23.7-8.1,23.7-22.9
			S554.3,842.5,539.2,842.5z"/>
		<path d="M632.6,834.1c19.8,0,31.1,7.3,38.8,22.9c0.7,1.3,0.3,2.1-0.9,2.5l-3,1.3c-1.2,0.4-1.6,0.4-2.4-0.9
			c-6.7-13.2-16-19.4-32.6-19.4c-19.1,0-30.2,8.3-30.2,22.5c0,17.5,16.4,20.3,33.2,22.1c18.1,2.1,36.9,5.2,36.9,28
			c0,19.2-13.3,30.2-39.1,30.2c-20.7,0-32.7-8.3-39.8-25.9c-0.6-1.5-0.4-2.1,1-2.7l2.8-1c1.3-0.4,1.8-0.3,2.5,1.2
			c6.4,14.9,16.9,21.9,33.4,21.9c21.3,0,32.3-7.7,32.3-23.4c0-17.5-15.4-19.7-31.5-21.6c-18.5-2.2-38.6-5.3-38.6-28.3
			C595.5,845.5,609.2,834.1,632.6,834.1z"/>
		<path d="M774.8,868.4c0,20-12.6,32-32.7,32h-34.9v38.9c0,1.5-0.4,1.9-1.8,1.9h-3.1c-1.5,0-1.9-0.4-1.9-1.9V838.1
			c0-1.5,0.4-1.9,1.9-1.9h39.8C762.1,836.2,774.8,848.2,774.8,868.4z M767.7,868.4c0-16.3-10.1-25.9-26.2-25.9h-34.3V894h34.3
			C757.7,894,767.7,884.6,767.7,868.4z"/>
		<path d="M837.7,834.1c25.8,0,39.7,13.9,39.7,36.6v36.1c0,22.6-13.9,36.6-39.7,36.6c-26,0-40-13.9-40-36.6v-36.1
			C797.8,848,811.7,834.1,837.7,834.1z M837.7,840.5c-21.6,0-33.2,11.2-33.2,30.2v36.1c0,18.9,11.5,30.2,33.2,30.2
			c21.3,0,32.9-11.2,32.9-30.2v-36.1C870.6,851.7,859,840.5,837.7,840.5z"/>
		<path d="M982,865.8c0,17-10.1,27.2-26,28.6c5.6,2.4,8.9,6.1,12.1,12.1l16.6,32.9c0.7,1,0.4,1.9-1,1.9h-2.8c-2.4,0-3.1-0.3-3.7-1.6
			l-15.4-30.5c-4.9-9.8-10.5-14.1-22.9-14.1h-24.4v44.3c0,1.5-0.4,1.9-1.8,1.9h-3.1c-1.5,0-1.9-0.4-1.9-1.9V838.1
			c0-1.5,0.4-1.9,1.9-1.9H952C970.6,836.2,982,847,982,865.8z M951.3,842.5h-36.9v46.2h36.9c14.8,0,23.7-8.1,23.7-22.9
			S966.3,842.5,951.3,842.5z"/>
		<path d="M1074.1,838.1v2.7c0,1.3-0.4,1.8-1.9,1.8h-32.1v96.8c0,1.5-0.4,1.9-1.8,1.9h-3.1c-1.5,0-1.9-0.4-1.9-1.9v-96.8h-32.1
			c-1.5,0-1.9-0.4-1.9-1.8v-2.7c0-1.5,0.4-1.9,1.9-1.9h71C1073.6,836.2,1074.1,836.6,1074.1,838.1z"/>
		<path d="M1232.2,838.1v101.2c0,1.5-0.4,1.9-1.8,1.9h-3c-1.3,0-1.8-0.4-1.8-1.9v-67.9c0-7.7,0.3-16,1-24.7h-0.3
			c-3.7,7.7-7.1,14.2-11.1,21.2l-26.3,46.8c-0.6,1.2-1.2,1.5-2.4,1.5h-1.9c-1.3,0-1.9-0.1-2.5-1.5l-26.8-47.4
			c-3.8-6.7-7.1-13-10.7-20.6h-0.3c0.6,8.7,0.9,16.7,0.9,24.7v67.9c0,1.5-0.4,1.9-1.9,1.9h-2.7c-1.5,0-1.9-0.4-1.9-1.9V838.1
			c0-1.5,0.4-1.9,1.9-1.9h2.4c1.6,0,2.1,0.4,2.8,1.6l39.7,70l39.4-69.9c0.7-1.3,1.2-1.8,2.7-1.8h2.8
			C1231.7,836.2,1232.2,836.6,1232.2,838.1z"/>
		<path d="M1343.6,941.2h-2.7c-2.2,0-3-0.3-3.3-1.6l-13.2-32.7h-49.1l-13,32.7c-0.4,1.3-1.2,1.6-3.4,1.6h-2.5
			c-1.5,0-1.8-0.7-1.3-1.8l41-102.3c0.6-1.3,1.2-1.8,2.5-1.8h3c1.3,0,2.1,0.4,2.5,1.8l41,102.3
			C1345.5,940.5,1345.2,941.2,1343.6,941.2z M1300.1,842.2h-0.4c0,0.7-0.1,3.4-1.2,6.4l-21,52.5h45.1l-21-52.5
			C1300.5,845.6,1300.2,843,1300.1,842.2z"/>
		<path d="M1399.2,834.1c19.8,0,31.1,7.3,38.8,22.9c0.7,1.3,0.3,2.1-0.9,2.5l-3,1.3c-1.2,0.4-1.6,0.4-2.4-0.9
			c-6.7-13.2-16-19.4-32.6-19.4c-19.1,0-30.2,8.3-30.2,22.5c0,17.5,16.4,20.3,33.2,22.1c18.1,2.1,36.9,5.2,36.9,28
			c0,19.2-13.3,30.2-39.1,30.2c-20.7,0-32.7-8.3-39.8-25.9c-0.6-1.5-0.4-2.1,1-2.7l2.8-1c1.3-0.4,1.8-0.3,2.5,1.2
			c6.4,14.9,16.9,21.9,33.4,21.9c21.3,0,32.3-7.7,32.3-23.4c0-17.5-15.4-19.7-31.5-21.6c-18.5-2.2-38.6-5.3-38.6-28.3
			C1362.1,845.5,1375.9,834.1,1399.2,834.1z"/>
		<path d="M1530.5,838.1v2.7c0,1.3-0.4,1.8-1.9,1.8h-32.1v96.8c0,1.5-0.4,1.9-1.8,1.9h-3.1c-1.5,0-1.9-0.4-1.9-1.9v-96.8h-32.1
			c-1.5,0-1.9-0.4-1.9-1.8v-2.7c0-1.5,0.4-1.9,1.9-1.9h71C1530.1,836.2,1530.5,836.6,1530.5,838.1z"/>
		<path d="M1617.8,838.1v2.7c0,1.3-0.4,1.8-1.9,1.8h-55.5v42.3h49.1c1.3,0,1.8,0.4,1.8,1.8v2.7c0,1.5-0.4,1.9-1.8,1.9h-49.1v43.7
			h57.6c1.3,0,1.9,0.4,1.9,1.8v2.7c0,1.5-0.6,1.9-1.9,1.9h-62.5c-1.5,0-1.9-0.4-1.9-1.9V838.1c0-1.5,0.4-1.9,1.9-1.9h60.4
			C1617.4,836.2,1617.8,836.6,1617.8,838.1z"/>
		<path d="M1721.4,865.8c0,17-10.1,27.2-26,28.6c5.6,2.4,8.9,6.1,12.1,12.1l16.6,32.9c0.7,1,0.4,1.9-1,1.9h-2.8
			c-2.4,0-3.1-0.3-3.7-1.6l-15.4-30.5c-4.9-9.8-10.5-14.1-22.9-14.1h-24.4v44.3c0,1.5-0.4,1.9-1.8,1.9h-3.1c-1.5,0-1.9-0.4-1.9-1.9
			V838.1c0-1.5,0.4-1.9,1.9-1.9h42.5C1710,836.2,1721.4,847,1721.4,865.8z M1690.7,842.5h-36.9v46.2h36.9c14.8,0,23.7-8.1,23.7-22.9
			S1705.8,842.5,1690.7,842.5z"/>
		<path d="M1784,834.1c19.8,0,31.1,7.3,38.8,22.9c0.7,1.3,0.3,2.1-0.9,2.5l-3,1.3c-1.2,0.4-1.6,0.4-2.4-0.9
			c-6.7-13.2-16-19.4-32.6-19.4c-19.1,0-30.2,8.3-30.2,22.5c0,17.5,16.4,20.3,33.2,22.1c18.1,2.1,36.9,5.2,36.9,28
			c0,19.2-13.3,30.2-39.1,30.2c-20.7,0-32.7-8.3-39.8-25.9c-0.6-1.5-0.4-2.1,1-2.7l2.8-1c1.3-0.4,1.8-0.3,2.5,1.2
			c6.4,14.9,16.9,21.9,33.4,21.9c21.3,0,32.3-7.7,32.3-23.4c0-17.5-15.4-19.7-31.5-21.6c-18.5-2.2-38.6-5.3-38.6-28.3
			C1746.9,845.5,1760.7,834.1,1784,834.1z"/>
	</g>
</g>
<g id="Layer_2">
</g>
</svg>
